<?xml version="1.0" encoding="utf-8"?>
<!-- Generator: Adobe Illustrator 16.0.0, SVG Export Plug-In . SVG Version: 6.00 Build 0)  -->
<!DOCTYPE svg PUBLIC "-//W3C//DTD SVG 1.1//EN" "http://www.w3.org/Graphics/SVG/1.1/DTD/svg11.dtd">
<svg version="1.1" id="Layer_1" xmlns="http://www.w3.org/2000/svg" xmlns:xlink="http://www.w3.org/1999/xlink" x="0px" y="0px"
	 width="70.867px" height="70.867px" viewBox="0 0 70.867 70.867" enable-background="new 0 0 70.867 70.867" xml:space="preserve">
<g id="Layer_1_1_">
</g>
<g id="Layer_2">
	<g>
		<g>
			<g>
				<path fill="#FF0000" d="M1.329,19.518l16.508-13.31c0.481-0.39,1.054-0.575,1.641-0.575c0.678,0,1.368,0.271,1.881,0.794
					l14.075,21.155L49.509,6.426c0.512-0.524,1.19-0.794,1.88-0.794c0.575,0,1.161,0.187,1.642,0.575l16.508,13.31
					c0.899,0.731,1.212,1.954,0.772,3.02L60.793,45.9c-0.178,0.431-0.459,0.804-0.826,1.088L37.135,64.594
					c-0.03,0.043-0.072,0.07-0.115,0.095c-0.114,0.095-0.24,0.167-0.365,0.24c-0.113,0.064-0.229,0.116-0.354,0.159
					c-0.023,0.01-0.03,0.01-0.041,0.01c-0.114,0.041-0.229,0.071-0.343,0.084c-0.063,0.023-0.114,0.03-0.178,0.03
					c-0.199,0.03-0.408,0.03-0.606,0c-0.063,0-0.114-0.011-0.178-0.03c-0.115-0.013-0.229-0.043-0.345-0.084
					c-0.01,0-0.032-0.01-0.043-0.01c-0.124-0.043-0.238-0.095-0.355-0.159c-0.133-0.071-0.261-0.146-0.375-0.24l-0.052-0.041
					L10.899,46.989c-0.367-0.281-0.659-0.658-0.825-1.085L0.556,22.538C0.116,21.471,0.43,20.251,1.329,19.518z"/>
			</g>
		</g>
	</g>
</g>
</svg>
