<?xml version="1.0" encoding="utf-8"?>
<!-- Generator: Adobe Illustrator 16.0.0, SVG Export Plug-In . SVG Version: 6.00 Build 0)  -->
<!DOCTYPE svg PUBLIC "-//W3C//DTD SVG 1.1//EN" "http://www.w3.org/Graphics/SVG/1.1/DTD/svg11.dtd">
<svg version="1.1" id="Layer_1" xmlns="http://www.w3.org/2000/svg" xmlns:xlink="http://www.w3.org/1999/xlink" x="0px" y="0px"
	 width="70.867px" height="70.867px" viewBox="0 0 70.867 70.867" enable-background="new 0 0 70.867 70.867" xml:space="preserve">
<g id="Layer_1_1_">
</g>
<g id="Layer_2">
	<g>
		<g>
			<path fill="#EABEBE" d="M4.381,20.942l15.03-12.119c0.438-0.354,0.96-0.523,1.494-0.523c0.617,0,1.246,0.246,1.713,0.723
				l12.815,13.262L48.249,9.022c0.466-0.477,1.084-0.723,1.712-0.723c0.523,0,1.057,0.17,1.494,0.523l15.031,12.119
				c0.818,0.666,1.104,1.779,0.703,2.75l-8.666,21.273c-0.162,0.392-0.418,0.731-0.752,0.99l-20.789,16.03
				c-0.027,0.039-0.065,0.064-0.104,0.086c-0.104,0.086-0.219,0.152-0.333,0.219c-0.104,0.059-0.209,0.105-0.322,0.145
				c-0.021,0.01-0.027,0.01-0.037,0.01c-0.104,0.037-0.209,0.064-0.313,0.076c-0.057,0.021-0.104,0.027-0.162,0.027
				c-0.181,0.027-0.371,0.027-0.552,0c-0.057,0-0.104-0.01-0.162-0.027c-0.105-0.012-0.209-0.039-0.314-0.076
				c-0.009,0-0.029-0.01-0.039-0.01c-0.113-0.039-0.217-0.086-0.323-0.145c-0.122-0.064-0.238-0.133-0.342-0.219l-0.048-0.037
				L13.095,45.955c-0.334-0.256-0.6-0.6-0.751-0.988L3.677,23.692C3.277,22.721,3.562,21.61,4.381,20.942z"/>
		</g>
	</g>
</g>
</svg>
