<?xml version="1.0" encoding="utf-8"?>
<!-- Generator: Adobe Illustrator 16.0.0, SVG Export Plug-In . SVG Version: 6.00 Build 0)  -->
<!DOCTYPE svg PUBLIC "-//W3C//DTD SVG 1.1//EN" "http://www.w3.org/Graphics/SVG/1.1/DTD/svg11.dtd">
<svg version="1.1" id="Layer_1" xmlns="http://www.w3.org/2000/svg" xmlns:xlink="http://www.w3.org/1999/xlink" x="0px" y="0px"
	 width="28.346px" height="56.691px" viewBox="0 0 28.346 56.691" enable-background="new 0 0 28.346 56.691" xml:space="preserve">
<g>
	<g>
		<path fill="#C4C4C4" stroke="#969696" stroke-width="0.5" stroke-miterlimit="10" d="M27.121,52.523l-4.436,2.306
			c-0.053-0.099-4.769-9.178-9.674-19.218c-0.171,0.826-0.33,1.62-0.481,2.386c-0.593,2.98-1.104,5.556-1.993,7.888
			c-0.706,1.852-2.853,7.481-6.657,6.302c-2.314-0.718-3.22-3.629-2.303-7.412c0.653-2.699,3.855-7.611,6.894-11.845
			c0.31-1.405,0.664-2.896,1.096-4.479C0.486,9.25,1.207,7.63,1.795,6.308c1.358-3.066,3.543-3.694,4.726-3.795
			c2.067-0.176,4.186,0.966,5.526,2.98c0.768,1.15,1.929,4.521,3.056,8.268c1.737-3.605,3.908-7.555,6.655-11.897l4.228,2.672
			c-4.087,6.463-6.837,12.009-8.764,16.819c0.661,2.551,1.14,4.608,1.254,5.399l0.154,1.069l-0.673,0.847
			c-0.529,0.666-1.104,1.4-1.705,2.184C19.556,37.703,23.365,45.295,27.121,52.523z M11.821,21.436
			c0.052-0.141,0.104-0.281,0.159-0.423c-1.4-5.186-3.334-11.562-4.095-12.749c-0.376-0.564-0.817-0.776-0.938-0.77l0,0
			c0,0.002-0.183,0.093-0.421,0.521C6.733,9.739,8.772,14.756,11.821,21.436z"/>
	</g>
	<g>
		
			<rect x="8.687" y="25.25" transform="matrix(-0.9805 0.1963 -0.1963 -0.9805 32.9374 52.2354)" fill="#C4C4C4" stroke="#969696" stroke-width="0.5" stroke-miterlimit="10" width="10.386" height="5"/>
	</g>
</g>
</svg>
