<?xml version="1.0" encoding="utf-8"?>
<!-- Generator: Adobe Illustrator 16.0.0, SVG Export Plug-In . SVG Version: 6.00 Build 0)  -->
<!DOCTYPE svg PUBLIC "-//W3C//DTD SVG 1.1//EN" "http://www.w3.org/Graphics/SVG/1.1/DTD/svg11.dtd">
<svg version="1.1" id="Layer_1" xmlns="http://www.w3.org/2000/svg" xmlns:xlink="http://www.w3.org/1999/xlink" x="0px" y="0px"
	 width="28.346px" height="56.692px" viewBox="14.173 -17.024 28.346 56.692" enable-background="new 14.173 -17.024 28.346 56.692"
	 xml:space="preserve">
<g>
	<g>
		<path fill="#CABFD1" stroke="#B9AAC1" stroke-width="0.5" stroke-miterlimit="10" d="M41.386,36.134l-4.436,2.306
			c-0.052-0.099-4.768-9.178-9.673-19.218c-0.171,0.826-0.33,1.62-0.482,2.386c-0.593,2.98-1.104,5.555-1.993,7.887
			c-0.706,1.852-2.853,7.482-6.657,6.302c-2.315-0.718-3.22-3.629-2.303-7.412c0.653-2.699,3.856-7.611,6.894-11.845
			c0.309-1.405,0.664-2.895,1.095-4.478c-9.081-19.2-8.359-20.821-7.771-22.143c1.358-3.066,3.543-3.694,4.725-3.795
			c2.068-0.176,4.186,0.966,5.527,2.981c0.767,1.15,1.928,4.52,3.055,8.267c1.738-3.605,3.909-7.554,6.656-11.897l4.227,2.672
			C36.163-5.39,33.413,0.155,31.487,4.966c0.661,2.551,1.139,4.608,1.253,5.399l0.155,1.07l-0.673,0.846
			c-0.529,0.666-1.104,1.401-1.705,2.184C33.821,21.315,37.63,28.906,41.386,36.134z M26.085,5.047
			c0.052-0.141,0.105-0.281,0.159-0.423c-1.4-5.185-3.334-11.561-4.094-12.749c-0.376-0.564-0.818-0.776-0.939-0.769l0,0
			c0,0.002-0.182,0.092-0.421,0.52C20.997-6.65,23.036-1.633,26.085,5.047z"/>
	</g>
	<g>
		
			<rect x="22.953" y="8.861" transform="matrix(0.9805 -0.1963 0.1963 0.9805 -1.6828 5.7471)" fill="#CABFD1" stroke="#B9AAC1" stroke-width="0.5" stroke-miterlimit="10" width="10.386" height="5"/>
	</g>
</g>
</svg>
